PathFileType	4	(X/Y/Z)	Patient4_TMGait_0pt5_01_left_03.trc.trc
DataRate	CameraRate	NumFrames	NumMarkers	Units	OrigDataRate	OrigDataStartFrame	OrigNumFrames
71.794871794872	71.794871794872	5	33	mm	71.794871794872	18	       141
Frame#	Time	L.ASIS			Sacral			L.Shoulder			Chest			R.Shoulder			Neck			R.ASIS			R.Thigh.Superior			R.Thigh.Lateral			R.Thigh.Inferior			R.Patella			L.Thigh.Superior			L.Thigh.Lateral			L.Thigh.Inferior			L.Patella			L.Shank.Superior			L.Shank.Lateral			L.Shank.Inferior			R.Shank.Superior			R.Shank.Lateral			R.Shank.Inferior			R.Heel			R.Midfoot.Superior			R.Midfoot.Lateral			R.Toe			L.Heel			L.Midfoot.Lateral			L.Midfoot.Superior			L.Toe			L.Elbow			L.Wrist			R.Elbow			R.Wrist			
		X1	Y1	Z1	X2	Y2	Z2	X3	Y3	Z3	X4	Y4	Z4	X5	Y5	Z5	X6	Y6	Z6	X7	Y7	Z7	X8	Y8	Z8	X9	Y9	Z9	X10	Y10	Z10	X11	Y11	Z11	X12	Y12	Z12	X13	Y13	Z13	X14	Y14	Z14	X15	Y15	Z15	X16	Y16	Z16	X17	Y17	Z17	X18	Y18	Z18	X19	Y19	Z19	X20	Y20	Z20	X21	Y21	Z21	X22	Y22	Z22	X23	Y23	Z23	X24	Y24	Z24	X25	Y25	Z25	X26	Y26	Z26	X27	Y27	Z27	X28	Y28	Z28	X29	Y29	Z29	X30	Y30	Z30	X31	Y31	Z31	X32	Y32	Z32	X33	Y33	Z33	

18	4.066785714286	736.035529088909	963.738514091131	364.869331789550	540.620512530959	1009.640085406049	545.490403014628	703.452054025540	1437.694743995324	352.292562503874	823.187242346287	1362.482033160430	498.559372364013	763.040759322511	1436.498817766176	682.924674349459	724.671923880123	1495.477468629126	503.113276462321	777.983663652288	938.726860189573	636.276966072603	792.435277224202	731.768127168639	602.944090998681	704.443541639243	630.922519515488	669.357343919337	764.200650800795	571.565670568867	582.353650429876	752.649852092396	484.747402577152	587.360444807808	809.156272188611	774.163095663399	395.042928054412	761.250042280686	651.565536377815	316.058119798657	856.626860734466	586.542369121892	384.834948170791	884.584887080376	525.403917669216	381.246862076344	873.404760849243	456.503405546368	366.945268025610	821.191683139592	322.732654816997	309.597684488296	913.365230132550	229.886050845958	368.514439987302	720.081783060774	398.311455499448	594.876933066150	644.406245026767	299.078721193039	657.402122649419	675.687733286965	202.872160030812	591.861655808521	528.838415109008	43.352765892359	563.238248325404	701.052449420352	96.485745856993	596.837186022634	612.733524635159	36.405749259364	637.328785753348	820.916695288145	42.576849931428	624.756958030512	843.469096221906	39.964508549491	399.512347323542	922.705961882091	52.857185559124	325.384491763624	982.763732573004	138.291800014167	349.518214738963	1120.636492687814	124.966394161195	334.655373898592	584.316966635576	1101.510102610723	246.437277308329	567.071377877280	843.306449192940	233.119389975684	872.162931281182	1119.308372199803	806.604183584663	1112.112588019450	1145.684773048585	732.680274330577	
19	4.080714285714	735.570923630469	962.777579714248	363.445097622103	540.640952325606	1008.533869836225	544.671898495003	701.538298275334	1437.036977216410	350.861201343437	821.859341815402	1362.066608206791	496.770400289022	761.919782383950	1435.876724977220	681.290535936834	723.048229248855	1494.796219644040	501.659717614623	778.192800547197	938.273925023105	634.844788580687	791.329040652528	730.849048413706	601.676483252131	702.758636031347	630.279643636129	668.393832431715	761.820144822559	570.544336732236	581.427283633309	749.547124360005	483.612658709553	586.416729585259	808.898828135038	773.025199588296	393.141986757390	759.372899994306	649.704726614773	315.752179740696	855.600492034098	585.146850943476	383.311296801621	883.262042117753	524.115237812896	380.394093472400	872.238351276189	455.114921591653	366.687618839055	820.064218601962	321.063188942070	310.436920336122	912.770051783135	228.822739937341	369.171661782181	716.167952885574	397.359541957103	594.103011133085	639.817851738671	298.846678533015	656.959584543417	669.859151765333	202.313881549223	591.452892858309	521.811937931136	43.375011706591	563.267636557431	694.015758433134	96.410289207233	596.755084855459	605.706819977258	36.384684158166	637.311642005568	813.891800165096	42.457661372836	624.762647649817	843.096268289831	40.075173976649	401.661644924224	921.866771307589	51.778089508314	327.002353095929	982.717703969945	136.544953775879	350.290154163563	1120.141666264475	121.844520255336	334.777369148311	579.715217516806	1101.922606211256	246.069175478682	559.601402506770	843.845248001972	233.578906752388	874.829185262579	1119.625572738595	802.831130192899	1111.934991728954	1155.320191836681	725.206090475045	
20	4.094642857143	735.490368212413	961.725240196134	361.912312155651	540.990028781572	1007.230897766558	543.663301373569	699.494546139643	1436.301391131952	349.258264726450	820.443957436398	1361.702570843508	494.837637008502	760.595886184063	1435.199400799615	679.516908546497	721.206414577866	1494.058514832499	500.047327594715	778.636975979288	937.822868092805	633.320416062470	790.342903864632	729.861637845337	600.378940477949	701.076596736372	629.636684490040	667.387860945600	759.443702464029	569.464187878689	580.517083828115	746.386210647295	482.445694677532	585.450625730586	809.395580319255	771.949650288957	391.060631022075	757.943059885080	647.679239170746	315.599436130327	855.176659115811	583.700764088935	381.703571413676	882.361206594177	522.392772981704	379.498062955867	871.043032364102	453.093812695311	366.517153713798	817.833038278584	319.241639337466	311.356318105156	910.258545197437	226.880500300318	369.899119264351	712.194467650111	396.401136545619	593.322939474244	635.186979349863	298.625685275011	656.532651736484	664.008138309050	201.766160618717	591.063729827026	514.790285958915	43.389943961295	563.302199175004	686.996104063815	96.335369921465	596.696725101455	598.678635957537	36.344955953700	637.277044412157	806.866375513668	42.327737362971	624.770191820152	839.224005420572	40.062840428947	403.699400279752	917.541663076633	50.143664229370	328.451759523376	979.928252524203	133.539137169156	351.129371965442	1116.706772446398	116.261134868014	334.764673882700	575.643671430451	1102.045580972731	245.494061696699	553.494156517750	844.030734070055	233.840573011239	876.979923505636	1119.747441377643	798.953878751132	1111.111141702403	1163.734171456235	717.842001162920	
21	4.108571428571	735.797509521069	960.583187569785	360.283223327419	541.641714000613	1005.760030876816	542.442955418356	697.361793151231	1435.483314683679	347.475394003021	818.971796671658	1361.386559141599	492.759933468246	759.094301936558	1434.470216311083	677.600533641396	719.183302845727	1493.266304402594	498.265822513313	779.304446548627	937.360622762883	631.716468128010	789.470336066834	728.797513351566	599.090964850394	699.357358135493	629.005954840495	666.349876402538	757.042593743813	568.329804620005	579.638254050225	743.128799590805	481.255486948437	584.470860828155	810.492656392098	770.842427828082	388.866730389124	756.894580347426	645.515726169339	315.519278512513	855.184131956680	582.158135412529	380.073262695093	881.714304037406	520.269129618029	378.620188522679	869.793089813342	450.532778942926	366.424307229354	814.761825337754	317.226416509671	312.282332841412	906.273402412846	224.170994968270	370.689564395220	708.134737065928	395.449002894579	592.544702157655	630.488086564054	298.427269702256	656.130589727524	658.122953180702	201.239123564543	590.701327496756	507.775081193984	43.402041258184	563.342545889054	679.992971227056	96.262437262758	596.663241272284	591.651309804661	36.287597177473	637.226333812171	799.841099018069	42.182919011418	624.780720654963	832.625473465726	39.844151626149	405.527001666589	910.562083496375	48.035728271296	329.712475845014	975.040045781390	129.487027106879	352.094448816455	1111.042222837240	108.695998490892	334.817194379483	572.076649350924	1101.875652792347	244.693384072379	548.736794929935	843.848474335988	233.883044633046	878.622533151659	1119.667320312269	795.015986046176	1109.785791737460	1170.887400371133	710.647991533116	
22	4.122500000000	736.469284323206	959.369613482942	358.569360128382	542.541295223037	1004.170192025739	540.989119030484	695.190704734193	1434.585047296090	345.504428939227	817.478838478607	1361.116810487411	490.537940566238	757.449415470812	1433.703976997344	675.536706892151	717.029972401182	1492.429726676381	496.301964387482	780.169431827520	936.873094311855	630.039451701331	788.710955853714	727.656655942201	597.836048038204	697.582977934908	628.397377496067	665.276602754925	754.612507605992	567.151469904467	578.786426839435	739.770863555636	480.048946345460	583.473608694517	812.007142043264	769.635333844752	386.636033951390	756.166143536394	643.272818920354	315.423753022454	855.462960602009	580.512545640379	378.480324085496	881.170808501596	517.827225848808	377.811760207044	868.484712209195	447.579630206315	366.382652048604	811.154877853589	315.037346494387	313.144824066810	901.308203285471	220.897637912143	371.524281053469	703.989756770470	394.513468976178	591.765263160124	625.715275308719	298.264671823910	655.751883848544	652.203406622533	200.742704464352	590.365612383387	500.768221802225	43.423096983901	563.389392836420	673.006298837605	96.195135096857	596.652698964058	584.629200877990	36.219430093608	637.163048069839	792.818158150254	42.018307769472	624.795362507838	824.166498123509	39.427223135396	407.087477869038	901.825651280341	45.625489491000	330.781397947517	968.745320475947	124.712827031167	353.214602499120	1103.893869187584	99.779757412870	335.071174900504	569.000803444955	1101.418089096646	243.655977260144	545.302321184391	843.298339843725	233.690530104178	879.768149497261	1119.387197530311	791.054929921262	1108.102974134592	1176.754670083823	703.677891131000	
